HIERARCHY
ROOT SpineBase
{
  OFFSET 0.000000 0.000000 0.000000
  CHANNELS 6 Xposition Yposition Zposition Zrotation Xrotation Yrotation
  JOINT SpineMid
  {
    OFFSET 0.000000 35.500345 0.000000
    CHANNELS 3 Zrotation Xrotation Yrotation
    JOINT SpineShoulder
    {
      OFFSET -0.033129 26.175895 -0.961287
      CHANNELS 3 Zrotation Xrotation Yrotation
      JOINT Neck
      {
        OFFSET -0.037173 8.601748 -0.695416
        CHANNELS 3 Zrotation Xrotation Yrotation
        JOINT Head
        {
          OFFSET 2.127054 8.654330 3.998717
          CHANNELS 3 Zrotation Xrotation Yrotation
          End Site
          {
            OFFSET 0 0 0
          }
        }
      }
      JOINT ShoulderLeft
      {
        OFFSET -16.905426 -9.197401 -0.840399
        CHANNELS 3 Zrotation Xrotation Yrotation
        JOINT ElbowLeft
        {
          OFFSET -4.569468 -22.506899 8.916734
          CHANNELS 3 Zrotation Xrotation Yrotation
          JOINT WristLeft
          {
            OFFSET 0.456509 -10.863407 25.936904
            CHANNELS 3 Zrotation Xrotation Yrotation
            JOINT HandLeft
            {
              OFFSET 0.160101 -3.661930 9.092123
              CHANNELS 3 Zrotation Xrotation Yrotation
              JOINT HandTipLeft
              {
                OFFSET -0.871689 2.985121 1.139243
                CHANNELS 3 Zrotation Xrotation Yrotation
                End Site
                {
                  OFFSET 0 0 0
                }
              }
              JOINT ThumbLeft
              {
                OFFSET -1.520939 3.604684 -0.119875
                CHANNELS 3 Zrotation Xrotation Yrotation
                End Site
                {
                  OFFSET 0 0 0
                }
              }
            }
          }
        }
      }
      JOINT ShoulderRight
      {
        OFFSET 13.063460 -7.719537 -11.440291
        CHANNELS 3 Zrotation Xrotation Yrotation
        JOINT ElbowRight
        {
          OFFSET 7.872448 -21.190845 -2.108620
          CHANNELS 3 Zrotation Xrotation Yrotation
          JOINT WristRight
          {
            OFFSET -19.501755 -4.988564 7.655584
            CHANNELS 3 Zrotation Xrotation Yrotation
            JOINT HandRight
            {
              OFFSET 0.959179 3.498099 8.500623
              CHANNELS 3 Zrotation Xrotation Yrotation
              JOINT HandTipRight
              {
                OFFSET -0.366350 -0.069951 -0.774635
                CHANNELS 3 Zrotation Xrotation Yrotation
                End Site
                {
                  OFFSET 0 0 0
                }
              }
              JOINT ThumbRight
              {
                OFFSET -0.481718 0.185545 -2.517704
                CHANNELS 3 Zrotation Xrotation Yrotation
                End Site
                {
                  OFFSET 0 0 0
                }
              }
            }
          }
        }
      }
    }
  }
  JOINT HipLeft
  {
    OFFSET -6.806634 0.533129 -1.368663
    CHANNELS 3 Zrotation Xrotation Yrotation
    JOINT KneeLeft
    {
      OFFSET -2.697506 -35.152503 4.815390
      CHANNELS 3 Zrotation Xrotation Yrotation
      JOINT AnkleLeft
      {
        OFFSET -3.086121 -33.292337 0.730862
        CHANNELS 3 Zrotation Xrotation Yrotation
        JOINT FootLeft
        {
          OFFSET -4.044287 -3.654610 -14.134330
          CHANNELS 3 Zrotation Xrotation Yrotation
          End Site
          {
            OFFSET 0 0 0
          }
        }
      }
    }
  }
  JOINT HipRight
  {
    OFFSET 6.167978 0.987714 -6.683450
    CHANNELS 3 Zrotation Xrotation Yrotation
    JOINT KneeRight
    {
      OFFSET 2.121131 -32.248545 0.366319
      CHANNELS 3 Zrotation Xrotation Yrotation
      JOINT AnkleRight
      {
        OFFSET -1.375039 -37.813953 -2.026434
        CHANNELS 3 Zrotation Xrotation Yrotation
        JOINT FootRight
        {
          OFFSET -5.537083 -5.728320 -1.367215
          CHANNELS 3 Zrotation Xrotation Yrotation
          End Site
          {
            OFFSET 0 0 0
          }
        }
      }
    }
  }
}
MOTION
Frames: 8
Frame Time: 0.033333
29.350001 76.290456 326.685613 -1.184371 0.605527 20.851779 -0.382842 1.070460 -20.905717 -0.114166 0.422874 -0.081850 8.063967 -3.461638 -1.957322 0.000000 0.000000 0.000000 -3.204674 -15.686142 0.109658 5.425671 13.722069 -1.380531 -0.000000 0.000000 0.000000 -0.000000 0.000000 0.000000 0.000000 0.000000 0.000000 0.000000 0.000000 0.000000 3.916117 -2.556249 -0.172088 -4.306548 -0.071868 -0.407326 6.117578 -12.046017 -5.574074 -1.801846 8.235674 -6.347836 0.000000 0.000000 0.000000 0.000000 0.000000 0.000000 0.113299 -0.333077 -21.003944 -0.220935 -1.123596 0.191961 0.861122 1.126901 0.814058 0.000000 0.000000 0.000000 2.016504 -0.484960 -20.756298 -3.903416 -1.517572 0.049169 16.840298 39.798105 -46.753233 0.000000 0.000000 0.000000
29.259941 76.274407 326.537576 -1.562102 0.854791 22.678882 -0.625230 1.180872 -22.750092 -0.187469 0.404286 -0.115876 8.298721 -2.981522 -1.840261 0.000000 0.000000 0.000000 -2.463858 -16.873956 0.304125 5.507768 14.675667 -1.620386 -0.000000 0.000000 0.000000 0.613176 0.600042 -0.061785 0.000000 0.000000 0.000000 0.000000 0.000000 0.000000 4.393113 -1.697061 0.306227 -3.941465 -0.941190 -1.342797 9.978357 -30.867430 -18.492904 -5.827553 15.679818 17.003640 0.000000 0.000000 0.000000 0.000000 0.000000 0.000000 0.484806 -0.626475 -22.819968 -0.330148 -1.428143 0.201621 0.530887 1.266289 2.187049 0.000000 0.000000 0.000000 2.528074 -1.130903 -22.557291 -4.143137 -1.831425 0.054912 13.359889 38.550087 -42.282732 0.000000 0.000000 0.000000
29.141437 76.223885 326.350390 -1.937432 1.160041 24.752558 -0.686333 1.192424 -24.833691 -0.169239 0.405895 -0.132727 6.453654 -2.313950 -1.048844 0.000000 0.000000 0.000000 -1.676000 -18.378435 0.698872 5.307809 15.898709 -2.016414 -0.000000 0.000000 0.000000 -0.000000 0.000000 0.000000 0.000000 0.000000 0.000000 0.000000 0.000000 0.000000 3.904782 -0.220840 1.050930 -3.204748 -2.589817 -2.510881 4.969881 -56.226502 -47.502746 -60.449155 28.256879 91.075200 0.000000 0.000000 0.000000 0.000000 0.000000 0.000000 0.784487 -1.037787 -24.874810 -0.499273 -1.628259 0.201226 0.260530 1.324335 3.602435 0.000000 0.000000 0.000000 2.813600 -1.618064 -24.593800 -3.907427 -2.523484 0.041615 9.863114 37.614845 -38.277534 0.000000 0.000000 0.000000
28.990358 76.198012 326.140805 -2.429912 1.494724 26.701423 -0.887116 1.226578 -26.798891 -0.300100 0.384477 -0.174947 6.096382 -2.098348 -0.547745 0.000000 0.000000 0.000000 -0.296446 -19.783479 1.238736 4.965736 17.067378 -2.433765 -0.000000 0.000000 0.000000 0.736075 0.625981 -0.101743 0.000000 0.000000 0.000000 0.000000 0.000000 0.000000 3.558140 1.248876 1.866083 -2.167857 -4.190012 -3.641495 -18.035254 -66.670197 -90.038938 -76.068399 -0.180337 149.283870 0.000000 0.000000 0.000000 0.000000 0.000000 0.000000 1.029025 -1.467262 -26.820183 -0.402700 -1.824807 0.225430 -0.124240 1.372343 4.974542 0.000000 0.000000 0.000000 3.020505 -1.901960 -26.492258 -3.224251 -3.577434 0.014679 6.608002 37.204382 -35.076236 0.000000 0.000000 0.000000
28.814258 76.253178 325.922432 -3.006642 1.810642 28.262259 -1.125603 1.241107 -28.378374 -0.368312 0.374833 -0.215322 6.229675 -1.829293 -0.239905 0.000000 0.000000 0.000000 1.471897 -21.195607 2.004506 4.351715 18.302614 -2.933557 -0.000000 0.000000 0.000000 0.750623 0.549685 -0.129074 0.000000 0.000000 0.000000 0.000000 0.000000 0.000000 3.054082 3.053205 2.851122 -1.271616 -6.250875 -4.712019 -27.384088 -65.825608 -110.157355 -74.858039 -23.808645 173.760813 0.000000 0.000000 0.000000 0.000000 0.000000 0.000000 1.219304 -1.933923 -28.384137 -0.100096 -1.946223 0.264490 -0.541549 1.425993 6.063638 0.000000 0.000000 0.000000 3.212778 -1.996867 -27.993590 -2.274107 -4.858295 -0.006597 4.126398 37.511653 -33.155453 0.000000 0.000000 0.000000
28.576947 76.329245 325.687141 -3.741357 2.050101 29.522423 -1.294106 1.175560 -29.657294 -0.366666 0.356774 -0.251523 6.193147 -1.403140 0.114280 0.000000 0.000000 0.000000 3.502327 -22.870782 3.015688 3.581127 19.946366 -3.572178 -0.000000 0.000000 0.000000 0.721512 0.410590 -0.157544 0.000000 0.000000 0.000000 0.000000 0.000000 0.000000 2.530847 5.538265 4.106709 -1.176101 -9.207620 -5.687450 -22.152461 -62.466541 -112.253276 -70.992435 -35.706596 179.109163 0.000000 0.000000 0.000000 0.000000 0.000000 0.000000 1.517975 -2.483557 -29.636011 0.291250 -1.908394 0.297244 -0.984554 1.404381 6.972796 0.000000 0.000000 0.000000 3.552227 -1.980394 -29.180681 -1.079118 -6.275538 -0.007592 5.058066 41.193592 -36.953656 0.000000 0.000000 0.000000
28.367818 76.403763 325.456043 -4.439038 2.220641 30.279090 -1.304674 0.994171 -30.425503 -0.277985 0.333588 -0.269683 4.404335 -1.151743 1.095834 0.000000 0.000000 0.000000 5.654132 -24.561568 4.304808 2.492326 21.738010 -4.302578 -0.000000 0.000000 0.000000 -0.000000 0.000000 0.000000 0.000000 0.000000 0.000000 0.000000 0.000000 0.000000 1.622783 8.077051 5.397433 -0.734433 -12.015883 -6.706300 -12.136163 -59.027091 -104.079736 -63.231703 -31.340485 -174.722238 0.000000 0.000000 0.000000 0.000000 0.000000 0.000000 1.704839 -2.992871 -30.395302 0.785360 -1.677207 0.326153 -1.358581 1.291561 7.536688 0.000000 0.000000 0.000000 3.773800 -1.791873 -29.873891 0.347136 -7.656884 0.027780 0.590836 39.752869 -32.012555 0.000000 0.000000 0.000000
28.057137 76.288149 325.235138 -5.338316 2.298143 30.627777 -1.316904 0.828251 -30.790934 -0.387901 0.287026 -0.317997 4.701907 -0.642729 1.375797 0.000000 0.000000 0.000000 2.580600 -29.696139 2.786493 6.709633 26.742710 -4.992447 -0.000000 0.000000 0.000000 -0.000000 0.000000 0.000000 0.000000 0.000000 0.000000 0.000000 0.000000 0.000000 0.541246 9.791638 6.526378 0.669904 -13.894707 -7.345946 7.249660 -47.907230 -80.893108 -53.429576 -24.590791 -179.407603 0.000000 0.000000 0.000000 0.000000 0.000000 0.000000 2.254766 -3.665284 -30.697884 1.010127 -1.500390 0.328746 -1.777738 1.210398 8.674780 0.000000 0.000000 0.000000 4.336920 -1.763772 -30.140966 1.676922 -8.801734 0.090051 -3.552357 39.075773 -28.298691 0.000000 0.000000 0.000000
